<svg data-v-fde0c5aa="" xmlns="http://www.w3.org/2000/svg" viewBox="0 0 300 300" class="iconLeft"><!----><defs data-v-fde0c5aa=""><!----></defs><rect data-v-fde0c5aa="" fill="#B71C1C" x="0" y="0" width="300px" height="300px" class="logo-background-square"></rect><defs data-v-fde0c5aa=""><!----></defs><g data-v-fde0c5aa="" id="edd77be8-9c2c-4aca-a1d1-edeecaa92a78" fill="#212121" transform="matrix(1.3338165395642758,0,0,1.3338165395642758,68.27720164637385,142.67067790998001)"><path d="M4.77 10.50L4.77 2.49L7.27 2.49L7.27 0.50L0.28 0.50L0.28 2.49L2.77 2.49L2.77 10.50L4.77 10.50L4.77 10.50ZM15.78 10.50L15.78 0.49L13.78 0.49L13.78 4.49L10.78 4.49L10.78 0.49L8.78 0.49L8.78 10.50L10.78 10.50L10.78 6.50L13.78 6.50L13.78 10.50L15.78 10.50L15.78 10.50ZM20.03 10.50L20.03 0.49L18.03 0.49L18.03 10.50L20.03 10.50L20.03 10.50ZM24.29 5.05L24.29 5.05L29.36 10.71L29.89 10.71L29.89 0.50L27.87 0.50L27.87 6.16L22.82 0.28L22.29 0.28L22.29 10.50L24.29 10.50L24.29 5.05ZM39.37 9.88L39.37 9.88L39.37 5.49L37.34 5.49L37.34 8.50C37.16 8.53 36.96 8.55 36.78 8.55C32.91 8.55 32.73 2.58 36.78 2.44C37.84 2.41 38.49 2.63 38.88 2.80L39.12 0.77C38.93 0.71 37.97 0.36 36.78 0.41C29.83 0.66 30.17 10.56 36.78 10.56C37.73 10.56 38.60 10.32 39.37 9.88ZM41.10 9.86C42.46 10.56 43.71 10.63 44.27 10.58C46.14 10.49 47.29 9.21 47.29 7.55C47.29 5.95 45.95 5.05 44.39 4.48C43.82 4.28 43.33 4.03 43.27 3.47C43.23 2.91 43.55 2.39 44.27 2.35C44.58 2.34 45.21 2.32 46.31 2.77L46.56 0.84C45.28 0.39 44.59 0.39 44.07 0.42C42.41 0.50 41.24 1.79 41.24 3.47C41.24 5.15 42.64 5.95 44.21 6.52C44.77 6.72 45.21 6.97 45.25 7.55C45.30 8.09 44.80 8.51 44.21 8.55C43.75 8.60 42.50 8.57 41.36 7.76L41.10 9.86L41.10 9.86ZM56.36 10.71L58.18 6.23L60.02 10.67L60.38 10.67L64.47 0.49L62.22 0.49L60.20 5.60L58.24 0.59L58.14 0.59L56.18 5.60L54.17 0.49L51.91 0.49L56.01 10.71ZM67.69 10.50L67.69 0.49L65.69 0.49L65.69 10.50L67.69 10.50L67.69 10.50ZM73.60 10.50L73.60 2.49L76.09 2.49L76.09 0.50L69.10 0.50L69.10 2.49L71.60 2.49L71.60 10.50L73.60 10.50L73.60 10.50ZM84.60 10.50L84.60 0.49L82.60 0.49L82.60 4.49L79.60 4.49L79.60 0.49L77.60 0.49L77.60 10.50L79.60 10.50L79.60 6.50L82.60 6.50L82.60 10.50L84.60 10.50L84.60 10.50ZM90.37 9.86C91.73 10.56 92.97 10.63 93.53 10.58C95.41 10.49 96.56 9.21 96.56 7.55C96.56 5.95 95.21 5.05 93.66 4.48C93.09 4.28 92.60 4.03 92.54 3.47C92.50 2.91 92.82 2.39 93.53 2.35C93.84 2.34 94.47 2.32 95.58 2.77L95.83 0.84C94.54 0.39 93.86 0.39 93.34 0.42C91.67 0.50 90.51 1.79 90.51 3.47C90.51 5.15 91.91 5.95 93.48 6.52C94.04 6.72 94.47 6.97 94.51 7.55C94.57 8.09 94.07 8.51 93.48 8.55C93.02 8.60 91.77 8.57 90.62 7.76L90.37 9.86L90.37 9.86ZM101.89 10.50L101.89 2.49L104.38 2.49L104.38 0.50L97.40 0.50L97.40 2.49L99.89 2.49L99.89 10.50L101.89 10.50L101.89 10.50ZM113.15 10.50L113.15 10.50L110.82 6.37C113.76 5.52 113.41 0.49 109.84 0.49L105.90 0.49L105.90 10.50L107.90 10.50L107.90 6.68L108.86 6.68L110.88 10.50ZM107.90 2.49L109.66 2.49C111.02 2.49 111.02 4.73 109.66 4.73L107.90 4.73L107.90 4.73ZM116.48 10.50L116.48 0.49L114.48 0.49L114.48 10.50L116.48 10.50L116.48 10.50ZM120.74 5.05L120.74 5.05L125.80 10.71L126.34 10.71L126.34 0.50L124.32 0.50L124.32 6.16L119.27 0.28L118.73 0.28L118.73 10.50L120.74 10.50L120.74 5.05ZM135.81 9.88L135.81 9.88L135.81 5.49L133.78 5.49L133.78 8.50C133.60 8.53 133.41 8.55 133.22 8.55C129.36 8.55 129.18 2.58 133.22 2.44C134.29 2.41 134.93 2.63 135.32 2.80L135.56 0.77C135.38 0.71 134.41 0.36 133.22 0.41C126.28 0.66 126.62 10.56 133.22 10.56C134.18 10.56 135.04 10.32 135.81 9.88ZM137.55 9.86C138.91 10.56 140.15 10.63 140.71 10.58C142.59 10.49 143.74 9.21 143.74 7.55C143.74 5.95 142.39 5.05 140.84 4.48C140.27 4.28 139.78 4.03 139.72 3.47C139.68 2.91 140 2.39 140.71 2.35C141.02 2.34 141.65 2.32 142.76 2.77L143.01 0.84C141.72 0.39 141.04 0.39 140.52 0.42C138.85 0.50 137.69 1.79 137.69 3.47C137.69 5.15 139.09 5.95 140.66 6.52C141.22 6.72 141.65 6.97 141.69 7.55C141.75 8.09 141.25 8.51 140.66 8.55C140.20 8.60 138.95 8.57 137.80 7.76L137.55 9.86L137.55 9.86Z"></path></g><defs data-v-fde0c5aa=""><!----></defs><g data-v-fde0c5aa="" id="8a71b732-01d1-41d1-93ca-757b148d8d62" stroke="none" fill="#212121" transform="matrix(0.20867560372055852,0,0,0.20867560372055852,37.39155495349302,139.56621981397208)"><path d="M75 50L25.001 25 25 37.5l50 25zM75 87.5H50L25.001 75 25 87.5H12.5V100h75V87.5H75.001zM12.5 0v12.5H25l50 25V25L50 12.5h37.5V0z"></path><path d="M25.001 50L25 62.5l50 25V75z"></path></g><!----></svg>